 <svg  version="1.0" xmlns="http://www.w3.org/2000/svg"  width="300.000000pt" height="300.000000pt" viewBox="0 0 300.000000 300.000000"  preserveAspectRatio="xMidYMid meet">  <g transform="translate(0.000000,300.000000) scale(0.100000,-0.100000)" fill="#e4b021" stroke="none"> <path d="M1893 2930 c-50 -30 -63 -66 -63 -170 l0 -90 -840 0 c-928 0 -880 3 -920 -63 -16 -26 -20 -50 -20 -124 l0 -93 45 0 45 0 0 -845 0 -845 610 2 610 3 0 -187 0 -188 -103 0 c-116 0 -181 -15 -231 -54 -46 -35 -86 -117 -86 -178 l0 -48 560 0 560 0 0 48 c0 61 -40 143 -86 178 -50 39 -115 54 -231 54 l-103 0 0 188 0 187 610 -3 610 -2 0 523 0 524 25 11 c14 6 34 26 45 44 19 32 20 51 20 541 0 561 1 548 -63 587 -31 19 -53 20 -497 20 -444 0 -466 -1 -497 -20z m21 -61 c-28 -29 -29 -35 -32 -132 -5 -132 7 -173 56 -195 36 -16 36 -16 11 -20 -54 -7 -64 -31 -67 -173 l-4 -129 30 -30 30 -30 454 0 454 0 27 28 c26 28 27 31 27 157 0 182 10 174 -224 177 l-181 2 177 5 c229 8 221 1 229 174 3 67 5 -96 5 -363 0 -267 -2 -430 -3 -364 -3 116 -5 123 -30 148 l-26 26 -457 0 -458 0 -27 -32 c-26 -31 -27 -34 -23 -149 3 -115 4 -119 32 -148 21 -22 25 -31 14 -31 -8 0 -23 9 -34 21 -17 19 -19 44 -24 301 l-5 280 -28 22 -27 22 25 24 c20 19 25 33 25 71 0 40 -4 51 -30 72 -27 23 -28 26 -11 32 36 11 46 36 51 126 5 75 10 92 30 114 13 14 28 25 34 25 5 0 -3 -14 -20 -31z m964 11 c12 -12 22 -28 22 -38 0 -13 -3 -12 -15 5 -9 12 -26 29 -38 38 -15 11 -17 15 -6 15 8 0 25 -9 37 -20z m-34 -36 c13 -12 16 -40 16 -140 l0 -124 -470 0 -470 0 0 124 c0 100 3 128 16 140 14 14 69 16 454 16 385 0 440 -2 454 -16z m-2710 -256 c-16 -18 -30 -35 -31 -37 -2 -2 -3 3 -3 12 0 17 37 57 54 57 5 0 -3 -15 -20 -32z m1696 -58 l0 -50 -845 0 -845 0 0 34 c0 71 -59 66 861 66 l829 0 0 -50z m-1705 -60 c16 -15 41 -24 72 -27 l48 -5 -29 -33 -29 -33 -24 29 c-13 15 -34 29 -46 31 -19 3 -22 10 -23 53 -1 28 0 40 3 29 2 -12 15 -32 28 -44z m2735 -127 l0 -143 -470 0 -470 0 0 143 0 142 470 0 470 0 0 -142z m-1030 -230 c0 -258 1 -280 20 -310 41 -68 38 -68 503 -68 l417 0 -2 -468 -3 -467 -1265 0 -1265 0 -3 795 -2 795 800 0 800 0 0 -277z m1030 -131 c0 -86 -4 -132 -12 -140 -9 -9 -125 -12 -460 -12 -432 0 -448 1 -458 19 -5 11 -10 74 -10 140 l0 121 470 0 470 0 0 -128z m40 -141 c0 -6 -18 -30 -39 -55 -21 -25 -41 -51 -43 -58 -3 -8 -14 -2 -32 19 l-27 33 -172 3 -172 3 205 2 c174 2 209 5 230 19 14 9 29 23 33 30 9 15 17 17 17 4z m-672 -58 c-26 -2 -71 -2 -100 0 -29 2 -8 3 47 3 55 0 79 -1 53 -3z m-2004 -1011 l21 -24 -30 4 c-31 3 -43 25 -30 56 6 14 8 15 12 2 3 -8 15 -26 27 -38z m2592 -8 c-3 -8 -18 -14 -33 -14 l-27 0 30 31 c23 24 30 27 32 14 2 -9 1 -23 -2 -31z m-1346 -14 c14 -4 19 -8 11 -9 -8 -1 -25 -11 -38 -23 -22 -21 -23 -26 -23 -202 0 -171 1 -181 22 -203 28 -30 83 -31 115 -1 22 21 23 26 23 202 0 171 -1 181 -22 203 -12 13 -29 23 -37 24 -28 2 32 17 71 18 46 1 56 -14 29 -43 -20 -21 -21 -33 -21 -202 l0 -181 26 -24 c23 -21 37 -25 132 -30 60 -3 -30 -6 -203 -6 -170 0 -287 3 -258 6 35 4 60 14 77 30 26 24 26 25 26 201 0 164 -2 179 -21 204 -11 14 -17 30 -14 36 7 12 69 12 105 0z m80 -232 l0 -188 -50 0 -50 0 0 188 0 187 50 0 50 0 0 -187z m-482 -288 c-57 -50 -65 -74 -33 -106 l24 -24 441 0 441 0 24 24 c32 32 24 56 -33 106 -50 44 -46 53 8 16 39 -26 87 -114 77 -140 -6 -15 -59 -16 -519 -14 -482 3 -513 4 -516 21 -6 30 38 106 76 132 55 38 60 30 10 -15z m806 -4 c25 -6 86 -60 86 -77 0 -5 -186 -9 -460 -9 -274 0 -460 4 -460 9 0 18 62 71 88 77 15 3 30 6 35 7 22 5 690 -2 711 -7z"/> <path d="M2019 2768 c0 -2 -1 -24 -2 -50 l-3 -48 48 0 48 0 0 50 0 50 -45 0 c-25 0 -45 -1 -46 -2z"/> <path d="M2200 2720 l0 -50 50 0 50 0 0 50 0 50 -50 0 -50 0 0 -50z"/> <path d="M2390 2721 l0 -51 48 0 48 0 -2 48 -2 47 -46 3 -46 3 0 -50z"/> <path d="M2300 2345 l0 -45 45 0 45 0 0 45 0 45 -45 0 -45 0 0 -45z"/> <path d="M2480 2345 l0 -45 50 0 50 0 0 45 0 45 -50 0 -50 0 0 -45z"/> <path d="M2670 2345 l0 -45 50 0 50 0 0 45 0 45 -50 0 -50 0 0 -45z"/> <path d="M330 2250 l0 -50 45 0 45 0 0 50 0 50 -45 0 -45 0 0 -50z"/> <path d="M516 2253 l2 -48 608 -3 609 -2 0 50 0 50 -610 0 -611 0 2 -47z"/> <path d="M330 2063 l0 -48 701 2 701 3 2 45 2 45 -703 0 -703 0 0 -47z"/> <path d="M465 1905 c-51 -18 -110 -81 -124 -131 -24 -87 -6 -204 47 -313 26 -51 28 -59 14 -79 -8 -12 -27 -59 -43 -104 -58 -168 -27 -301 84 -360 80 -43 243 -25 366 41 34 18 35 18 95 -10 142 -66 265 -75 351 -25 118 69 135 230 46 421 l-27 60 27 60 c41 88 62 180 56 246 -16 182 -171 254 -385 180 -45 -16 -92 -35 -104 -43 -20 -14 -28 -12 -79 14 -114 56 -240 73 -324 43z m-39 -95 c-20 -22 -36 -45 -36 -52 0 -6 -3 -9 -6 -6 -12 13 48 98 69 98 5 0 -7 -18 -27 -40z m852 0 c12 -18 22 -38 22 -44 0 -6 -6 -2 -12 9 -6 11 -22 33 -37 49 -15 16 -20 27 -11 24 8 -2 25 -19 38 -38z m-381 8 c56 24 65 21 35 -11 -12 -13 -22 -29 -22 -35 0 -15 286 -302 300 -302 7 0 25 14 42 31 33 32 33 29 2 -52 -17 -45 -17 -46 10 -113 15 -38 24 -71 21 -74 -3 -3 -5 0 -5 6 0 17 -50 72 -66 72 -18 0 -304 -283 -304 -301 0 -7 10 -24 23 -37 21 -23 21 -25 2 -19 -104 32 -103 32 -140 14 -50 -24 -60 -21 -36 9 12 15 21 30 21 35 0 14 -289 299 -303 299 -7 0 -24 -11 -37 -25 -13 -14 -25 -23 -27 -21 -2 2 6 27 17 56 l21 53 -26 70 c-14 38 -23 72 -20 75 3 3 5 0 5 -6 0 -16 50 -72 65 -72 14 0 279 261 295 290 8 14 4 25 -16 49 l-26 31 60 -22 60 -21 49 21z m-252 -2 c28 -8 63 -19 80 -25 l29 -12 -34 -26 c-45 -34 -189 -178 -223 -223 l-26 -34 -12 29 c-41 105 -48 182 -21 235 31 64 105 84 207 56z m545 1 c50 -17 75 -66 73 -142 -2 -58 -36 -175 -52 -175 -4 0 -12 10 -18 23 -16 35 -138 162 -203 211 l-60 44 45 17 c92 36 156 42 215 22z m-596 -645 c28 -29 75 -72 104 -94 l54 -42 -27 -13 c-14 -8 -58 -21 -96 -29 -182 -38 -253 70 -179 270 l21 56 36 -48 c19 -26 58 -71 87 -100z m647 81 c72 -218 -27 -316 -246 -243 -69 23 -69 23 -45 39 81 53 195 168 245 244 9 15 19 27 20 27 2 0 13 -30 26 -67z m59 -217 c0 -15 -56 -76 -69 -76 -5 0 7 16 25 36 19 19 34 40 34 45 0 5 2 9 5 9 3 0 5 -6 5 -14z m-865 -45 c24 -26 25 -31 9 -23 -12 6 -29 22 -38 36 -16 25 -23 48 -8 31 4 -6 21 -25 37 -44z"/> <path d="M770 1723 c-81 -55 -220 -199 -254 -264 l-30 -57 35 -57 c43 -74 189 -220 262 -264 l56 -33 47 22 c58 28 214 176 265 252 23 33 39 69 39 85 0 38 -56 118 -142 205 -74 73 -179 148 -207 148 -9 0 -41 -17 -71 -37z m245 -138 c45 -44 96 -102 114 -128 29 -43 32 -52 21 -71 -34 -64 -222 -253 -286 -287 -21 -11 -30 -7 -96 44 -82 62 -122 103 -196 196 l-51 64 32 46 c41 60 178 198 242 244 l49 35 45 -31 c25 -18 81 -68 126 -112z"/> <path d="M765 1574 c-97 -50 -133 -159 -85 -253 68 -133 264 -132 329 1 33 70 22 157 -27 211 -48 53 -155 73 -217 41z m139 -38 c50 -21 76 -64 76 -126 0 -62 -20 -104 -60 -125 -42 -22 -61 -19 -24 4 47 29 74 73 74 120 0 35 -7 49 -38 83 -33 34 -45 41 -78 41 -22 0 -53 -7 -70 -16 -40 -21 -79 -94 -70 -130 10 -41 62 -94 109 -111 39 -15 40 -16 8 -11 -77 11 -120 55 -128 126 -11 111 96 189 201 145z m1 -60 c50 -50 40 -125 -21 -153 -62 -30 -134 15 -134 82 0 80 100 126 155 71z"/> <path d="M1640 1500 l0 -50 515 0 515 0 0 50 0 50 -515 0 -515 0 0 -50z"/> <path d="M1640 1313 l0 -48 515 0 515 0 0 48 0 47 -515 0 -515 0 0 -47z"/> <path d="M1640 1030 l0 -140 140 0 140 0 0 140 0 140 -140 0 -140 0 0 -140z m235 0 l0 -95 -32 -3 c-18 -2 -33 -1 -33 2 0 2 14 18 30 34 38 39 39 79 4 121 -55 65 -144 26 -144 -63 0 -38 4 -48 25 -62 34 -22 31 -36 -7 -32 l-33 3 -3 84 c-2 46 0 90 2 98 4 11 27 13 98 11 l93 -3 0 -95z m-45 0 l0 -50 -50 0 -50 0 0 50 0 50 50 0 50 0 0 -50z"/> <path d="M2015 1030 l0 -140 143 0 142 0 0 140 0 140 -142 0 -143 0 0 -140z m125 93 c-8 -3 -27 -17 -42 -31 -36 -33 -37 -80 -3 -120 32 -38 31 -44 -2 -40 l-28 3 -3 98 -3 97 48 -1 c26 0 41 -3 33 -6z m114 -9 c11 -29 6 -160 -6 -172 -13 -13 -50 -16 -61 -6 -3 3 7 17 24 31 50 42 37 122 -24 148 l-32 14 46 1 c34 0 49 -4 53 -16z m-50 -81 l-1 -48 -47 -3 -46 -3 0 50 0 51 48 0 47 0 -1 -47z"/> <path d="M2390 1030 l0 -140 140 0 140 0 0 140 0 140 -140 0 -140 0 0 -140z m235 0 l0 -95 -32 -3 c-18 -2 -33 -1 -33 2 0 2 14 18 30 34 38 39 39 79 4 121 -55 65 -144 26 -144 -63 0 -36 5 -48 25 -64 33 -26 32 -34 -7 -30 l-33 3 -3 84 c-2 46 0 90 2 98 4 11 27 13 98 11 l93 -3 0 -95z m-45 0 l0 -50 -50 0 -50 0 0 50 0 50 50 0 50 0 0 -50z"/> <path d="M2019 2018 c0 -2 -1 -24 -2 -50 l-3 -48 48 0 48 0 0 50 0 50 -45 0 c-25 0 -45 -1 -46 -2z"/> <path d="M2200 1970 l0 -50 50 0 50 0 0 50 0 50 -50 0 -50 0 0 -50z"/> <path d="M2390 1971 l0 -51 48 0 48 0 -2 48 -2 47 -46 3 -46 3 0 -50z"/> </g> </svg> 